<svg width="17" height="16" viewBox="0 0 17 16" fill="none" xmlns="http://www.w3.org/2000/svg">
<path d="M15.2686 6.32574H1.79712V12.4863C1.79712 12.9482 1.89003 13.4056 2.07054 13.8323C2.25105 14.2589 2.51561 14.6465 2.84909 14.9729C3.18257 15.2993 3.57842 15.558 4.014 15.7342C4.44958 15.9104 4.91633 16.0008 5.38756 16H6.28371V10.7237H10.7703V16H11.6664C12.1377 16.0008 12.6044 15.9104 13.04 15.7342C13.4756 15.558 13.8714 15.2993 14.2049 14.9729C14.5384 14.6465 14.803 14.2589 14.9835 13.8323C15.164 13.4056 15.2569 12.9482 15.2569 12.4863L15.2686 6.32574Z" fill="#302E42"/>
<path d="M0.338623 6.3257L5.55736 1.2101C6.34817 0.435266 7.42053 0 8.53865 0C9.65678 0 10.7291 0.435266 11.52 1.2101L16.7387 6.3257H0.338623Z" fill="#302E42"/>
</svg>
