<svg width="83" height="70" viewBox="0 0 83 70" fill="none" xmlns="http://www.w3.org/2000/svg">
<path d="M80.8636 59.1096L46.5841 3.36776C43.7025 -1.12259 39.2122 -1.12259 36.3304 3.36776L1.71586 59.1096C-2.13765 65.1914 0.76086 70 7.7977 70H74.7817C82.1538 70.0167 84.7171 65.2082 80.8636 59.1096ZM41.4573 60.3995C39.5305 60.3995 38.2572 59.1262 38.2572 57.1994C38.2572 55.2727 39.5473 53.9993 41.4573 53.9993C43.384 53.9993 44.6573 55.2893 44.6573 57.1994C44.6573 59.1096 43.0489 60.3995 41.4573 60.3995ZM44.6573 44.3825C44.6573 45.9909 43.384 47.5826 41.4573 47.5826C39.5305 47.5826 38.2572 46.3093 38.2572 44.3825V25.1485C38.2572 23.5399 39.5473 21.9482 41.4573 21.9482C43.384 21.9482 44.6573 23.2383 44.6573 25.1485V44.3825Z" fill="url(#paint0_linear_85_497)"/>
<defs>
<linearGradient id="paint0_linear_85_497" x1="41.3227" y1="6.25849e-07" x2="23.3939" y2="124.654" gradientUnits="userSpaceOnUse">
<stop stop-color="#D86568"/>
<stop offset="0.625" stop-color="#D86568" stop-opacity="0.6175"/>
<stop offset="1" stop-color="#D86568" stop-opacity="0.5"/>
</linearGradient>
</defs>
</svg>
