<svg width="18" height="14" viewBox="0 0 18 14" fill="none" xmlns="http://www.w3.org/2000/svg">
<path fill-rule="evenodd" clip-rule="evenodd" d="M0.75 1.5H16.75C17.164 1.5 17.5 1.164 17.5 0.75C17.5 0.336 17.164 0 16.75 0H0.75C0.336 0 0 0.336 0 0.75C0 1.164 0.336 1.5 0.75 1.5Z" fill="#4C5456"/>
<path fill-rule="evenodd" clip-rule="evenodd" d="M0.75 7.5H16.75C17.164 7.5 17.5 7.164 17.5 6.75C17.5 6.336 17.164 6 16.75 6H0.75C0.336 6 0 6.336 0 6.75C0 7.164 0.336 7.5 0.75 7.5Z" fill="#4C5456"/>
<path fill-rule="evenodd" clip-rule="evenodd" d="M0.75 13.5H16.75C17.164 13.5 17.5 13.164 17.5 12.75C17.5 12.336 17.164 12 16.75 12H0.75C0.336 12 0 12.336 0 12.75C0 13.164 0.336 13.5 0.75 13.5Z" fill="#4C5456"/>
</svg>
