<svg width="24" height="24" viewBox="0 0 24 24" fill="none" xmlns="http://www.w3.org/2000/svg">
<path fill-rule="evenodd" clip-rule="evenodd" d="M2.99609 12.0005C2.99698 11.3372 3.14961 10.6829 3.44228 10.0877V10.0877C5.09837 6.90514 8.41274 4.93373 11.9998 4.9976C15.587 4.93373 18.9013 6.90514 20.5574 10.0877V10.0877C21.1523 11.2935 21.1523 12.7075 20.5574 13.9133V13.9133C18.9013 17.0959 15.587 19.0673 11.9998 19.0034C8.41274 19.0673 5.09837 17.0959 3.44228 13.9133V13.9133C3.14961 13.3181 2.99698 12.6638 2.99609 12.0005Z" stroke="#323232" stroke-width="1.5" stroke-linecap="round" stroke-linejoin="round"/>
<path d="M15.0015 12.0003C15.0015 13.6578 13.6578 15.0015 12.0003 15.0015C10.3427 15.0015 8.99902 13.6578 8.99902 12.0003C8.99902 10.3427 10.3427 8.99902 12.0003 8.99902" stroke="#323232" stroke-width="1.5" stroke-linecap="round" stroke-linejoin="round"/>
</svg>
