<svg width="24" height="24" viewBox="0 0 24 24" fill="none" xmlns="http://www.w3.org/2000/svg">
<path d="M3 3L21 21" stroke="#9398A1" stroke-width="1.75" stroke-linecap="round" stroke-linejoin="round"/>
<path d="M10.584 10.587C9.80248 11.3679 9.80203 12.6345 10.583 13.416C11.3639 14.1975 12.6305 14.1979 13.412 13.417" stroke="#9398A1" stroke-width="1.75" stroke-linecap="round" stroke-linejoin="round"/>
<path d="M9.12238 4.52374C8.65777 4.65665 8.38887 5.14104 8.52178 5.60565C8.65469 6.07027 9.13908 6.33916 9.60369 6.20625L9.12238 4.52374ZM12 5L11.9969 5.875H12V5ZM22 12L22.7597 12.4342C22.9135 12.1652 22.9135 11.8349 22.7597 11.5659L22 12ZM18.8545 14.8941C18.5265 15.249 18.5482 15.8026 18.9031 16.1306C19.258 16.4586 19.8116 16.4368 20.1396 16.0819L18.8545 14.8941ZM17.8463 18.0744C18.2469 17.8042 18.3526 17.2604 18.0824 16.8597C17.8122 16.4591 17.2684 16.3534 16.8677 16.6236L17.8463 18.0744ZM2 12L1.24035 11.5658C1.08657 11.8348 1.08655 12.1651 1.2403 12.4341L2 12ZM7.12318 7.38313C7.52311 7.11186 7.6274 6.56774 7.35613 6.16782C7.08486 5.76789 6.54075 5.66359 6.14082 5.93486L7.12318 7.38313ZM9.60369 6.20625C10.3819 5.98365 11.1876 5.87213 11.9969 5.87499L12.0031 4.125C11.0289 4.12155 10.0591 4.25579 9.12238 4.52374L9.60369 6.20625ZM12 5.875C15.58 5.875 18.6682 7.93317 21.2403 12.4341L22.7597 11.5659C19.9979 6.73283 16.42 4.125 12 4.125V5.875ZM21.2404 11.5658C20.489 12.8803 19.6927 13.9872 18.8545 14.8941L20.1396 16.0819C21.0834 15.0608 21.9551 13.8417 22.7597 12.4342L21.2404 11.5658ZM16.8677 16.6236C15.3788 17.6277 13.7647 18.125 12 18.125V19.875C14.1193 19.875 16.0732 19.2703 17.8463 18.0744L16.8677 16.6236ZM12 18.125C8.42001 18.125 5.33182 16.0668 2.7597 11.5659L1.2403 12.4341C4.00218 17.2672 7.57999 19.875 12 19.875V18.125ZM2.75965 12.4342C4.08316 10.1188 5.54462 8.45387 7.12318 7.38313L6.14082 5.93486C4.28138 7.19613 2.65484 9.09118 1.24035 11.5658L2.75965 12.4342Z" fill="#9398A1"/>
</svg>
