<svg width="22" height="22" viewBox="0 0 22 22" fill="none" xmlns="http://www.w3.org/2000/svg">
<path d="M8 0H2C1.46957 0 0.960859 0.210714 0.585786 0.585786C0.210714 0.960859 0 1.46957 0 2V15C0 15.5304 0.210714 16.0391 0.585786 16.4142C0.960859 16.7893 1.46957 17 2 17H8C8.53043 17 9.03914 16.7893 9.41421 16.4142C9.78929 16.0391 10 15.5304 10 15V2C10 1.46957 9.78929 0.960859 9.41421 0.585786C9.03914 0.210714 8.53043 0 8 0ZM8 14H2V2H8V14ZM20 12H12V14H20V20H8V19H5V20C5 20.5304 5.21071 21.0391 5.58579 21.4142C5.96086 21.7893 6.46957 22 7 22H20C20.5304 22 21.0391 21.7893 21.4142 21.4142C21.7893 21.0391 22 20.5304 22 20V14C22 13.4696 21.7893 12.9609 21.4142 12.5858C21.0391 12.2107 20.5304 12 20 12ZM22 9L18 7L19.91 6.09C18.74 3.31 16 1.5 13 1.5V0C15.3869 0 17.6761 0.948212 19.364 2.63604C21.0518 4.32387 22 6.61305 22 9Z" fill="#23919E"/>
</svg>
